<svg xmlns:xlink="http://www.w3.org/1999/xlink" id="kardan-logo_svg__Component_81_1" data-name="Component 81 \u2013 1" xmlns="http://www.w3.org/2000/svg" viewBox="0 0 31.916 32" class="logoImg_logoImg__dyyE9" width="40"  height="40" ><defs><style>.kardan-logo_svg__cls-2{fill:#e4b001}.kardan-logo_svg__cls-3{fill:#dfac01}.kardan-logo_svg__cls-4{fill:#e3af01}.kardan-logo_svg__cls-7{fill:#e7b101}</style></defs><g id="kardan-logo_svg__Group_23" data-name="Group 23"><path id="kardan-logo_svg__Path_164" data-name="Path 164" d="M790.763-449.587a16 16 0 0 1 16.474-15.962 16.015 16.015 0 0 1 15.437 16.393 16 16 0 0 1-16.5 15.591 15.993 15.993 0 0 1-15.411-16.022zm15.986 13.261a13.248 13.248 0 0 0 13.187-13.174 13.35 13.35 0 0 0-13.147-13.306 13.293 13.293 0 0 0-13.29 13.234 13.2 13.2 0 0 0 13.25 13.246zM792.4-449.318c-.277 0-.389.007-.5 0-.3-.023-.45.067-.439.41.012.364.211.387.485.365.245-.02.491-.025.736-.043.15-.011.258-.084.254-.248s.061-.354-.112-.421a1.323 1.323 0 0 0-.424-.063zm-.209-.445c.231-.153.8.215.735-.431s-.639-.257-.971-.362c-.31-.1-.5.029-.492.408.018.569.449.267.73.385zm29.065 1.213c.3-.035.682.167.685-.384 0-.429-.28-.418-.539-.373-.325.056-.864-.266-.918.332s.516.307.775.425zm-.01-1.235c.263-.08.677.173.694-.38.013-.4-.225-.469-.51-.388-.332.1-.922-.261-.946.4-.018.559.494.271.764.368zm-1.074 4.106a.346.346 0 0 0-.34.418c.171.515.717.426 1.1.572.315.118.4-.276.362-.422-.146-.598-.785-.297-1.119-.568zm-14.959-18.055c-.015-.154-.054-.438-.068-.722s-.171-.337-.4-.282c-.188.045-.417.071-.367.361s.106.606.17.907c.046.221.188.261.4.209.191-.049.34-.105.267-.473zm16.135 9.789c-.127-.207-.072-.581-.39-.484-.4.123-.921.081-1.124.551-.044.1-.005.513.351.408.401-.117.883-.072 1.166-.475zm-14.87-10.107c-.105-.217.206-.647-.271-.735-.719-.131-.525.417-.485.768.03.265-.077.707.417.676.44-.027.316-.4.342-.709zm0 29.03c-.056-.3.139-.815-.4-.733-.519.08-.325.627-.389.987-.05.284.025.465.376.462.598-.004.348-.444.419-.716zm-4.155.116c.052-.024.14-.034.162-.078a3.354 3.354 0 0 0 .331-1.209c.016-.158-.193-.148-.311-.195-.143-.056-.255-.047-.316.123-.1.273-.187.55-.307.813-.216.482.204.426.446.546zm18.734-13.112c-.067 0-.134-.007-.2-.013-.24-.022-.455 0-.5.3-.049.334.2.344.419.382s.438.077.657.122c.325.067.356-.164.412-.387.072-.284-.09-.359-.319-.378l-.463-.026zm-18.242-15.1c-.221-.3.021-.892-.522-1.056-.124-.037-.559.006-.451.321.137.4.078.962.613 1.126.138.044.436-.019.365-.389zm-9.967 10.834c.277.067.359-.118.422-.322.076-.244-.087-.3-.272-.354-.277-.075-.55-.166-.829-.234-.3-.074-.292.168-.344.358s-.085.348.178.392c.288.05.569.109.851.162zm-.458 1.217c.241-.1.7.159.649-.333-.073-.643-.709-.313-1.071-.473-.28-.123-.387.112-.38.375.023.638.547.259.812.433zm15.84 15.942c.169.186-.214.772.394.734.687-.044.345-.558.3-.916-.013-.111-.022-.222-.041-.331a.25.25 0 0 0-.333-.23c-.145.035-.322.049-.322.267zm0-28.674v.085c-.012.208-.018.4.26.454.171.031.374.027.369-.158-.012-.418.418-.844.01-1.242a.364.364 0 0 0-.493-.024.539.539 0 0 0-.111.3c-.019.159-.016.316-.031.584zm4.556 27.96c-.126-.272-.262-.6-.426-.911-.1-.192-.261-.091-.4-.032-.165.068-.257.169-.185.357.1.268.208.535.308.8.061.166.091.367.352.238.175-.081.394-.123.356-.45zm5.375-23.786c-.185-.169-.27-.4-.515-.429-.169-.02-.972.838-.907.969.084.169.215.42.432.316a3.118 3.118 0 0 0 .995-.854zm-12.979 24.267c.134-.365-.031-.45-.291-.507-.309-.067-.335.152-.379.34-.051.216-.039.45-.108.658-.123.367.111.413.363.477.336.086.375-.111.379-.367.009-.22.031-.443.041-.599zm-12.756-12.662c-.137.008-.249.022-.36.019-.313-.009-.513.066-.476.451.043.441.329.326.586.293a2.581 2.581 0 0 0 .325-.075c.23-.061.592.066.56-.379-.035-.489-.413-.264-.635-.309zm25.7 8.541a2.343 2.343 0 0 0-1.047-.876.44.44 0 0 0-.25.2c-.212.526.365.6.547.9.126.209.328.3.53.05zm-5.8-24.3c-.05.026-.138.041-.155.083a10.924 10.924 0 0 0-.406 1.122c-.051.189.17.227.3.292a.217.217 0 0 0 .327-.114c.129-.281.277-.557.38-.848.135-.397-.22-.415-.453-.54zm8.818 12.7c.157-.2.676.229.715-.344.015-.213-.039-.572-.4-.443s-.9-.113-1.082.424a.286.286 0 0 0 .293.363c.122-.004.255-.008.467-.008zm-27.521 5.856c-.051-.246-.09-.53-.35-.416-.378.166-.95-.02-1.112.52-.046.153.042.523.348.432.391-.126.869-.138 1.107-.544zm27.058-1.556c-.407-.082-.567.112-.487.347.179.524.732.377 1.121.494.3.09.37-.282.32-.446-.172-.542-.715-.268-.961-.403zm-9.58-15.887c.319-.255.35-.715.48-1.105.108-.326-.242-.41-.4-.382-.565.1-.339.663-.506 1-.139.253.063.399.418.479zm-17.062 18.6c-.062-.24-.121-.511-.369-.405-.38.163-.922.1-1.086.591-.046.139.081.51.372.424a1.693 1.693 0 0 0 1.076-.621zm26.454-11.591c-.353.208-.875.183-1.08.631a.355.355 0 0 0 .31.429c.3.037 1.156-.438 1.131-.638s-.087-.406-.368-.433zm-26.456.62a1.757 1.757 0 0 0-1.1-.6c-.286-.075-.41.309-.36.438.184.472.714.43 1.1.581.24.082.302-.189.353-.43zM811.1-434.9c.222-.125.59-.1.468-.412-.148-.384-.054-.944-.571-1.094a.311.311 0 0 0-.343.435c.13.361.035.836.446 1.071zm-1.644-28.62c-.042.287.01.508.277.47.66-.1.408-.727.583-1.1.123-.267-.154-.353-.351-.338-.72.049-.228.737-.507.967zm-16.182 17.18c-.021-.533-.31-.535-.573-.449-.321.1-.882-.126-.855.537.009.222.082.435.353.314.369-.168.875-.062 1.077-.403zm3.405 6.322a.411.411 0 0 0-.328-.35c-.18-.04-1.04.706-1.009.874a.553.553 0 0 0 .377.422c.141.049.956-.76.962-.947zm23.993-12.3c.211-.226.792.151.954-.4.049-.168-.027-.548-.315-.45-.392.134-.991-.058-1.128.553-.051.241.136.356.491.298zm-22.106-8.442c-.316-.345-.444-.836-.848-1.024a.359.359 0 0 0-.42.482 2.393 2.393 0 0 0 .681.814c.271.216.404-.085.589-.271zm-.045 22.345a.528.528 0 0 0-.357-.274c-.156-.052-.936.776-.914.973.025.228.214.331.4.405.117.046.861-.851.873-1.102zm20.126-3.919c-.259 0-.382.192-.352.342.1.492.561.652.948.814.257.108.45-.219.4-.4-.143-.461-.681-.493-.993-.755zm-8.329 7.269c-.017-.442-.3-1.016-.534-1.014-.3 0-.448.212-.322.43.192.333-.184.924.442 1.024.191.032.467-.027.417-.438zm-9.741-1.964c-.035-.252-.219-.3-.387-.343-.137-.031-.8.9-.767 1.1a.388.388 0 0 0 .492.319c.43-.215.447-.73.665-1.075zm15.646-24.379c-.057-.217-.266-.311-.465-.389-.118-.046-.793.819-.8 1-.008.22.169.3.321.382a3.35 3.35 0 0 0 .947-.992zm-16.056-.322c.156-.057.418-.114.381-.293a1.8 1.8 0 0 0-.6-1.138c-.137-.1-.391.059-.506.229-.098.141.545 1.184.728 1.202zm-5.6 18.768c-.084-.2-.115-.5-.355-.411-.395.149-.88.223-1.09.641-.058.114.118.516.359.443a1.879 1.879 0 0 0 1.089-.672zm24.631-15c-.288.267-.812.323-.9.831a.3.3 0 0 0 .317.343c.257-.006 1.081-.642 1.031-.808-.059-.187-.146-.374-.446-.363zm-3.9 19.246c-.151.1-.434.2-.311.418.211.364.324.863.819.955a.474.474 0 0 0 .417-.37 3.292 3.292 0 0 0-.923-1zm-22.21-14.8c.287.056.518.007.5-.25-.053-.618-.666-.458-1.022-.642-.3-.154-.417.181-.4.368.054.62.673.309.92.523zm2.632-6.531a.622.622 0 0 0-.371.423c-.03.136.787.873.96.874a.382.382 0 0 0 .372-.324c.04-.157-.781-.985-.963-.974zm23.233 1.447c-.082-.185-.224-.512-.383-.458a2.276 2.276 0 0 0-1.013.824c-.106.14.119.359.329.413a2.483 2.483 0 0 0 1.065-.779zm-24.4 2.482a2.165 2.165 0 0 0-1.067-.726.415.415 0 0 0-.362.463c.207.423.7.492 1.091.641.24.09.268-.219.339-.378zm6.509 20.719c.181-.012.622-.864.6-1.115-.021-.231-.2-.284-.37-.322s-.715.888-.675 1.13.278.247.446.306zm-5.552-5.918c-.323.251-.8.361-.971.8-.068.179.125.377.331.434s1.032-.679 1.009-.873a.407.407 0 0 0-.367-.361zm5.542-22.418c-.191.112-.517.105-.414.372.151.391.174.914.65 1.073a.3.3 0 0 0 .343-.425c-.153-.355-.116-.843-.578-1.02zm18.757 19.235a.324.324 0 0 0-.391.362c.147.5.681.483 1.057.658.248.116.378-.217.353-.365-.099-.569-.697-.417-1.019-.655zm-22.183-15.459c-.242-.3-.465-.576-.68-.855-.191-.249-.348-.186-.539.013a.318.318 0 0 0 .057.554c.294.179.354.727.854.561.11-.034.191-.164.307-.271zm-1.723 1.792a1.906 1.906 0 0 0-.953-.843c-.229-.1-.345.149-.41.332s.733.86.983.865c.219.007.287-.165.377-.352zm.8 20.056c.344-.2.472-.562.737-.794s.118-.427-.1-.505c-.547-.195-.633.4-.942.619-.266.186-.077.389.093.546a1.32 1.32 0 0 0 .209.136zm18.4-24.062c-.019-.236-.3-.433-.433-.372-.425.192-.518.685-.72 1.063-.1.189.179.274.339.32s.8-.732.811-1.009zm2.734 20.881a.532.532 0 0 0-.295.354 2.743 2.743 0 0 0 .971.853.514.514 0 0 0 .428-.45 2.341 2.341 0 0 0-1.108-.755zm-3.145 4.738c.172-.107.5-.186.388-.435-.165-.381-.3-.852-.789-.962a.324.324 0 0 0-.362.3 2.923 2.923 0 0 0 .759 1.099zm-19.5-20.6c.012-.151-.786-.8-1-.81-.3-.02-.463.268-.408.41.159.413.6.541.977.694.239.103.347-.114.431-.288zm-1.049 15.989c.268 0 1.087-.674 1.033-.834s-.156-.314-.323-.281a1.933 1.933 0 0 0-1.061.617c-.129.144.094.307.207.432a.36.36 0 0 0 .145.072zm5.357 3.542c-.026-.244-.2-.381-.358-.331a1.448 1.448 0 0 0-.8.974c-.1.242.273.414.428.364.465-.147.48-.684.73-1.001zm4.454-25.952c-.038-.324-.006-.684-.289-.912a.348.348 0 0 0-.431.085c-.278.322.034.628.067.942.021.2.08.464.407.406s.26-.296.247-.515zm10.046.795a.382.382 0 0 0-.419-.372c-.492.142-.511.656-.662 1.041-.1.248.239.409.353.352.418-.208.504-.685.728-1.021zm-.014 26.413c-.142-.244-.3-.51-.45-.778-.093-.166-.179-.292-.41-.177a.325.325 0 0 0-.14.54c.2.278.116.8.622.812a.35.35 0 0 0 .383-.397zm-10.05.982c.03-.387.088-.628-.24-.68s-.343.213-.408.414-.106.385-.15.58a.333.333 0 0 0 .277.445c.242.061.383-.013.424-.27.038-.218.09-.435.101-.489zm-5.184-27.144c-.183.088-.492.154-.429.35a1.71 1.71 0 0 0 .771 1.022c.113.062.269-.043.341-.153.159-.245-.072-.41-.17-.586-.126-.238-.176-.559-.509-.634zm20.578 19.2c-.32-.053-.493.2-.443.325.175.437.644.557 1.03.726.248.108.378-.219.358-.361-.075-.554-.664-.453-.94-.691zm-.02-12.445c.293-.228.86-.152.969-.681.028-.139-.1-.473-.343-.381a1.677 1.677 0 0 0-1.049.713c-.053.123.113.38.427.348zM807-464.061c.067.272-.123.751.364.7.561-.06.268-.6.337-.923.048-.228.077-.515-.313-.511-.599.004-.288.472-.388.734zm.69 29.2v-.5c0-.221-.06-.408-.325-.409-.3 0-.359.2-.351.451.005.133-.009.267 0 .4.023.261-.119.629.372.606s.269-.405.302-.545zm9.489-3.693c-.008-.167-.828-.942-.96-.9-.165.052-.4.151-.3.358a1.543 1.543 0 0 0 .848.89c.162.052.352-.149.41-.345zm0-22.018c-.082-.185-.258-.4-.427-.342a1.591 1.591 0 0 0-.838.907c-.086.192.143.3.318.343.142.033.95-.751.948-.905z" transform="translate(-790.763 465.557)" style="" fill="#695203"></path><path id="kardan-logo_svg__Path_165" data-name="Path 165" class="kardan-logo_svg__cls-2" d="M812.6-430.454a13.205 13.205 0 0 1-13.25-13.251 13.293 13.293 0 0 1 13.291-13.234 13.35 13.35 0 0 1 13.147 13.306 13.248 13.248 0 0 1-13.188 13.179zm-.062-.958a12.285 12.285 0 0 0 12.3-11.974 12.338 12.338 0 0 0-12.235-12.6 12.244 12.244 0 0 0-12.303 12.27 12.185 12.185 0 0 0 12.236 12.304z" transform="translate(-796.613 459.685)" fill="#E4B001"></path><path id="kardan-logo_svg__Path_166" data-name="Path 166" class="kardan-logo_svg__cls-3" d="M793.9-414.607a1.32 1.32 0 0 1 .424.062c.173.067.108.271.112.421s-.1.236-.254.248c-.245.018-.491.023-.736.043-.274.023-.474 0-.485-.365-.011-.343.141-.432.439-.41.108.008.22.001.5.001z" transform="translate(-792.258 430.845)" fill="#DFAC01"></path><path id="kardan-logo_svg__Path_167" data-name="Path 167" class="kardan-logo_svg__cls-3" d="M793.694-417.756c-.282-.118-.713.184-.728-.386-.01-.379.182-.506.492-.408.332.1.9-.28.971.362s-.504.279-.735.432z" transform="translate(-792.264 433.55)" fill="#DFAC01"></path><path id="kardan-logo_svg__Path_168" data-name="Path 168" class="kardan-logo_svg__cls-4" d="M884.805-413.883c-.263-.119-.827.177-.772-.425s.593-.275.918-.332c.259-.045.541-.055.539.373-.002.551-.39.349-.685.384z" transform="translate(-854.31 430.89)" fill="#E3AF01"></path><path id="kardan-logo_svg__Path_169" data-name="Path 169" class="kardan-logo_svg__cls-2" d="M884.8-417.768c-.271-.1-.783.191-.762-.366.024-.663.614-.306.946-.4.285-.082.523-.016.51.387-.017.547-.431.298-.694.379z" transform="translate(-854.315 433.54)" fill="#E4B001"></path><path id="kardan-logo_svg__Path_170" data-name="Path 170" class="kardan-logo_svg__cls-3" d="M882.316-403.177c.335.272.973-.03 1.127.568.038.147-.047.54-.362.422-.388-.146-.934-.057-1.1-.572a.346.346 0 0 1 .335-.418z" transform="translate(-852.905 423.055)" fill="#DFAC01"></path><path id="kardan-logo_svg__Path_171" data-name="Path 171" class="kardan-logo_svg__cls-3" d="M834.316-462.024c.072.368-.077.424-.269.473-.209.052-.351.013-.4-.209-.063-.3-.118-.6-.17-.907s.179-.316.367-.361c.229-.055.386 0 .4.282s.056.568.072.722z" transform="translate(-819.863 463.847)" fill="#DFAC01"></path><path id="kardan-logo_svg__Path_172" data-name="Path 172" class="kardan-logo_svg__cls-3" d="M883.485-430.185c-.283.4-.765.358-1.163.475-.356.105-.394-.306-.35-.408.2-.471.725-.429 1.124-.551.317-.097.261.278.389.484z" transform="translate(-852.897 441.797)" fill="#DFAC01"></path><path id="kardan-logo_svg__Path_173" data-name="Path 173" class="kardan-logo_svg__cls-3" d="M838.358-462.448c-.026.309.1.682-.338.71-.494.031-.387-.412-.417-.676-.04-.351-.234-.9.485-.768.476.082.165.517.27.734z" transform="translate(-822.64 463.953)" fill="#DFAC01"></path><path id="kardan-logo_svg__Path_174" data-name="Path 174" class="kardan-logo_svg__cls-3" d="M838.387-371.319c-.071.273.179.712-.41.717-.351 0-.426-.179-.376-.462.064-.359-.13-.907.389-.987.536-.083.34.433.397.732z" transform="translate(-822.666 401.854)" fill="#DFAC01"></path><path id="kardan-logo_svg__Path_175" data-name="Path 175" class="kardan-logo_svg__cls-3" d="M825.981-372.6c-.243-.12-.663-.064-.441-.546.12-.263.211-.54.307-.813.06-.17.173-.179.315-.123.118.047.327.036.311.195a3.357 3.357 0 0 1-.331 1.209c-.022.04-.109.051-.161.078z" transform="translate(-814.415 403.255)" fill="#DFAC01"></path><path id="kardan-logo_svg__Path_176" data-name="Path 176" class="kardan-logo_svg__cls-3" d="M884.336-410.554c.156.009.313.015.468.028.23.019.391.094.319.378-.056.223-.087.454-.412.388-.218-.045-.437-.085-.657-.122s-.468-.049-.419-.382c.045-.3.26-.321.5-.3.067.006.134.009.2.013z" transform="translate(-854.037 428.093)" fill="#DFAC01"></path><path id="kardan-logo_svg__Path_177" data-name="Path 177" class="kardan-logo_svg__cls-3" d="M826.482-460.177c.071.37-.227.432-.36.392-.536-.164-.477-.724-.613-1.126-.107-.315.328-.358.451-.321.54.163.3.758.522 1.055z" transform="translate(-814.425 462.619)" fill="#DFAC01"></path><path id="kardan-logo_svg__Path_178" data-name="Path 178" class="kardan-logo_svg__cls-3" d="M795.057-425.871c-.282-.054-.563-.112-.846-.159-.263-.044-.23-.2-.178-.392s.04-.431.344-.358c.279.068.552.159.829.234.185.05.348.11.273.354-.063.204-.144.392-.422.321z" transform="translate(-792.967 439.146)" fill="#DFAC01"></path><path id="kardan-logo_svg__Path_179" data-name="Path 179" class="kardan-logo_svg__cls-3" d="M794.171-421.875c-.26-.174-.784.2-.8-.431-.007-.263.1-.5.38-.375.362.16 1-.17 1.071.473.054.492-.41.237-.651.333z" transform="translate(-792.539 436.367)" fill="#DFAC01"></path><path id="kardan-logo_svg__Path_180" data-name="Path 180" class="kardan-logo_svg__cls-3" d="M845.594-371.662v-.476c0-.218.177-.232.322-.267a.25.25 0 0 1 .333.23c.019.11.028.221.041.331.042.358.384.872-.3.916-.61.039-.226-.548-.396-.734z" transform="translate(-828.122 402.096)" fill="#DFAC01"></path><path id="kardan-logo_svg__Path_181" data-name="Path 181" class="kardan-logo_svg__cls-3" d="M845.58-462.108c.015-.271.012-.428.035-.582a.538.538 0 0 1 .111-.3.364.364 0 0 1 .493.024c.408.4-.022.824-.01 1.242.005.185-.2.189-.369.158-.278-.051-.272-.246-.26-.454.004-.069 0-.136 0-.088z" transform="translate(-828.109 463.868)" fill="#DFAC01"></path><path id="kardan-logo_svg__Path_182" data-name="Path 182" class="kardan-logo_svg__cls-3" d="M857.668-374.478c.038.327-.181.37-.355.456-.261.129-.291-.072-.352-.238-.1-.269-.2-.536-.307-.8-.072-.188.019-.289.185-.357.143-.059.3-.16.4.032.167.308.303.635.429.907z" transform="translate(-835.64 404.197)" fill="#DFAC01"></path><path id="kardan-logo_svg__Path_183" data-name="Path 183" class="kardan-logo_svg__cls-3" d="M873.709-447.855a3.118 3.118 0 0 1-.99.856c-.217.1-.348-.147-.432-.316-.065-.131.739-.989.907-.969.245.028.33.26.515.429z" transform="translate(-846.306 453.789)" fill="#DFAC01"></path><path id="kardan-logo_svg__Path_184" data-name="Path 184" class="kardan-logo_svg__cls-3" d="M834.29-371.891c-.01.157-.032.38-.036.6 0 .256-.043.453-.379.367-.253-.064-.487-.111-.363-.477.07-.208.058-.442.108-.658.044-.188.07-.407.379-.34.26.058.425.143.291.508z" transform="translate(-819.866 402.092)" fill="#DFAC01"></path><path id="kardan-logo_svg__Path_185" data-name="Path 185" class="kardan-logo_svg__cls-3" d="M794.185-410.555c.222.046.6-.184.636.309.033.444-.329.317-.56.379a2.56 2.56 0 0 1-.325.075c-.257.033-.543.148-.586-.293-.038-.385.163-.46.476-.451.11.003.221-.011.359-.019z" transform="translate(-792.522 428.092)" fill="#DFAC01"></path><path id="kardan-logo_svg__Path_186" data-name="Path 186" class="kardan-logo_svg__cls-3" d="m873.754-385.6-.219.275c-.2.253-.4.159-.53-.05-.183-.3-.76-.378-.547-.9a.44.44 0 0 1 .25-.2 2.344 2.344 0 0 1 1.046.875z" transform="translate(-846.393 411.678)" fill="#DFAC01"></path><path id="kardan-logo_svg__Path_187" data-name="Path 187" class="kardan-logo_svg__cls-3" d="M857.193-459.993c.233.125.589.143.45.535-.1.291-.25.567-.38.848a.217.217 0 0 1-.327.114c-.134-.064-.356-.1-.3-.292a10.936 10.936 0 0 1 .406-1.122c.013-.043.101-.058.151-.083z" transform="translate(-835.637 461.766)" fill="#DFAC01"></path><path id="kardan-logo_svg__Path_188" data-name="Path 188" class="kardan-logo_svg__cls-3" d="M884.4-421.89h-.479a.286.286 0 0 1-.292-.363c.18-.537.716-.294 1.082-.424s.418.23.4.443c-.031.572-.55.14-.711.344z" transform="translate(-854.03 436.36)" fill="#DFAC01"></path><path id="kardan-logo_svg__Path_189" data-name="Path 189" class="kardan-logo_svg__cls-3" d="M796.567-402.716c-.238.407-.718.418-1.113.536-.306.091-.394-.279-.348-.432.162-.54.734-.354 1.111-.52.26-.114.298.17.35.416z" transform="translate(-793.714 423.042)" fill="#DFAC01"></path><path id="kardan-logo_svg__Path_190" data-name="Path 190" class="kardan-logo_svg__cls-3" d="M883.545-406.695c.246.135.79-.139.954.4.05.164-.019.536-.319.446-.389-.117-.942.03-1.121-.494-.081-.24.078-.434.486-.352z" transform="translate(-853.634 425.465)" fill="#DFAC01"></path><path id="kardan-logo_svg__Path_191" data-name="Path 191" class="kardan-logo_svg__cls-3" d="M853.562-459.7c-.355-.079-.557-.225-.43-.484.167-.34-.059-.906.506-1 .162-.028.512.056.4.382-.126.385-.157.845-.476 1.102z" transform="translate(-833.231 462.584)" fill="#DFAC01"></path><path id="kardan-logo_svg__Path_192" data-name="Path 192" class="kardan-logo_svg__cls-3" d="M797.891-399.066a1.692 1.692 0 0 1-1.082.61c-.291.086-.418-.286-.372-.424.164-.492.705-.428 1.086-.591.247-.106.307.165.368.405z" transform="translate(-794.622 420.546)" fill="#DFAC01"></path><path id="kardan-logo_svg__Path_193" data-name="Path 193" class="kardan-logo_svg__cls-3" d="M881.7-434.522c.281.026.335.228.361.423s-.828.675-1.131.638a.355.355 0 0 1-.31-.429c.204-.449.726-.424 1.08-.632z" transform="translate(-851.976 444.411)" fill="#DFAC01"></path><path id="kardan-logo_svg__Path_194" data-name="Path 194" class="kardan-logo_svg__cls-3" d="M797.88-433.882c-.051.24-.113.512-.354.418-.388-.151-.918-.11-1.1-.581-.05-.128.074-.513.36-.438a1.757 1.757 0 0 1 1.094.601z" transform="translate(-794.613 444.391)" fill="#DFAC01"></path><path id="kardan-logo_svg__Path_195" data-name="Path 195" class="kardan-logo_svg__cls-3" d="M853.585-372.592c-.413-.235-.318-.71-.446-1.071a.311.311 0 0 1 .343-.435c.518.15.423.71.571 1.094.121.316-.246.287-.468.412z" transform="translate(-833.246 403.249)" fill="#DFAC01"></path><path id="kardan-logo_svg__Path_196" data-name="Path 196" class="kardan-logo_svg__cls-3" d="M849.4-461.251c.279-.23-.213-.919.509-.973.2-.015.474.071.351.338-.174.378.078 1.009-.583 1.1-.264.044-.315-.178-.277-.465z" transform="translate(-830.709 463.287)" fill="#DFAC01"></path><path id="kardan-logo_svg__Path_197" data-name="Path 197" class="kardan-logo_svg__cls-3" d="M795.593-406.3c-.2.342-.707.236-1.075.4-.271.122-.344-.091-.353-.314-.027-.663.533-.433.855-.537.263-.087.552-.086.573.451z" transform="translate(-793.08 425.519)" fill="#DFAC01"></path><path id="kardan-logo_svg__Path_198" data-name="Path 198" class="kardan-logo_svg__cls-3" d="M806.473-386.164c-.006.186-.821 1-.96.946a.554.554 0 0 1-.377-.422c-.031-.168.829-.914 1.009-.874a.411.411 0 0 1 .328.35z" transform="translate(-800.555 411.702)" fill="#DFAC01"></path><path id="kardan-logo_svg__Path_199" data-name="Path 199" class="kardan-logo_svg__cls-3" d="M883.565-425.857c-.355.057-.542-.058-.488-.3.137-.611.736-.419 1.128-.553.287-.1.364.281.315.45-.163.555-.744.177-.955.403z" transform="translate(-853.654 439.097)" fill="#DFAC01"></path><path id="kardan-logo_svg__Path_200" data-name="Path 200" class="kardan-logo_svg__cls-3" d="M812.472-452.724c-.185.186-.318.487-.587.272a2.4 2.4 0 0 1-.681-.814.359.359 0 0 1 .42-.481c.404.186.532.677.848 1.023z" transform="translate(-804.667 457.522)" fill="#DFAC01"></path><path id="kardan-logo_svg__Path_201" data-name="Path 201" class="kardan-logo_svg__cls-3" d="M812.4-380.968c-.012.251-.757 1.149-.871 1.1-.185-.074-.375-.178-.4-.4-.022-.2.758-1.024.914-.973a.528.528 0 0 1 .357.273z" transform="translate(-804.638 408.111)" fill="#DFAC01"></path><path id="kardan-logo_svg__Path_202" data-name="Path 202" class="kardan-logo_svg__cls-3" d="M877.515-392.675c.313.261.847.293.991.76.055.176-.138.5-.4.4-.387-.162-.847-.322-.948-.814-.025-.154.098-.345.357-.346z" transform="translate(-849.628 415.899)" fill="#DFAC01"></path><path id="kardan-logo_svg__Path_203" data-name="Path 203" class="kardan-logo_svg__cls-3" d="M850.212-372.03c.05.411-.226.47-.414.44-.626-.1-.25-.691-.442-1.024-.126-.218.026-.427.322-.43.236-.002.522.572.534 1.014z" transform="translate(-830.654 402.524)" fill="#DFAC01"></path><path id="kardan-logo_svg__Path_204" data-name="Path 204" class="kardan-logo_svg__cls-3" d="M819.1-376.762c-.218.345-.235.86-.662 1.072a.388.388 0 0 1-.492-.319c-.03-.195.63-1.127.767-1.1.168.042.352.094.387.347z" transform="translate(-809.283 405.292)" fill="#DFAC01"></path><path id="kardan-logo_svg__Path_205" data-name="Path 205" class="kardan-logo_svg__cls-3" d="M867.966-453.37a3.35 3.35 0 0 1-.944 1c-.152-.083-.328-.162-.321-.382.006-.185.682-1.051.8-1 .199.071.408.165.465.382z" transform="translate(-842.503 457.52)" fill="#DFAC01"></path><path id="kardan-logo_svg__Path_206" data-name="Path 206" class="kardan-logo_svg__cls-3" d="M818.7-456.672c-.183-.018-.826-1.061-.73-1.2.115-.17.369-.33.506-.228a1.8 1.8 0 0 1 .6 1.138c.045.175-.217.232-.376.29z" transform="translate(-809.296 460.5)" fill="#DFAC01"></path><path id="kardan-logo_svg__Path_207" data-name="Path 207" class="kardan-logo_svg__cls-3" d="M799.6-395.561a1.879 1.879 0 0 1-1.086.673c-.24.073-.416-.329-.358-.443.21-.418.695-.492 1.09-.641.236-.091.266.214.354.411z" transform="translate(-795.79 418.157)" fill="#DFAC01"></path><path id="kardan-logo_svg__Path_208" data-name="Path 208" class="kardan-logo_svg__cls-3" d="M878.066-441.714c.3-.011.387.176.444.366.05.166-.774.8-1.031.808a.3.3 0 0 1-.317-.343c.092-.508.617-.564.904-.831z" transform="translate(-849.628 449.312)" fill="#DFAC01"></path><path id="kardan-logo_svg__Path_209" data-name="Path 209" class="kardan-logo_svg__cls-3" d="M867.023-381.317a3.291 3.291 0 0 1 .925 1 .473.473 0 0 1-.417.37c-.495-.092-.608-.591-.819-.955-.123-.211.16-.313.311-.415z" transform="translate(-842.49 408.161)" fill="#DFAC01"></path><path id="kardan-logo_svg__Path_210" data-name="Path 210" class="kardan-logo_svg__cls-3" d="M796.069-429.765c-.247-.214-.866.1-.926-.524-.018-.187.1-.522.4-.368.356.185.968.024 1.022.642.021.257-.209.307-.496.25z" transform="translate(-793.746 441.805)" fill="#DFAC01"></path><path id="kardan-logo_svg__Path_211" data-name="Path 211" class="kardan-logo_svg__cls-3" d="M805.517-448.268c.18-.012 1 .816.961.973a.382.382 0 0 1-.372.324c-.173 0-.99-.738-.96-.874a.622.622 0 0 1 .371-.423z" transform="translate(-800.562 453.777)" fill="#DFAC01"></path><path id="kardan-logo_svg__Path_212" data-name="Path 212" class="kardan-logo_svg__cls-3" d="M876.178-444.717a2.483 2.483 0 0 1-1.066.779c-.21-.053-.435-.273-.329-.413a2.275 2.275 0 0 1 1.013-.824c.158-.054.304.275.382.458z" transform="translate(-847.991 451.674)" fill="#DFAC01"></path><path id="kardan-logo_svg__Path_213" data-name="Path 213" class="kardan-logo_svg__cls-3" d="M799.578-437.489c-.071.159-.1.468-.337.378-.4-.149-.884-.217-1.091-.641a.414.414 0 0 1 .362-.463 2.165 2.165 0 0 1 1.066.726z" transform="translate(-795.787 446.928)" fill="#DFAC01"></path><path id="kardan-logo_svg__Path_214" data-name="Path 214" class="kardan-logo_svg__cls-3" d="M822.132-373.992c-.169-.06-.4-.052-.444-.307s.512-1.168.675-1.13.349.091.37.322c.021.251-.42 1.107-.601 1.115z" transform="translate(-811.832 404.15)" fill="#DFAC01"></path><path id="kardan-logo_svg__Path_215" data-name="Path 215" class="kardan-logo_svg__cls-3" d="M803.559-389.488a.407.407 0 0 1 .369.362c.024.194-.814.926-1.009.873s-.4-.255-.331-.434c.168-.44.648-.55.971-.801z" transform="translate(-798.81 413.728)" fill="#DFAC01"></path><path id="kardan-logo_svg__Path_216" data-name="Path 216" class="kardan-logo_svg__cls-3" d="M822.129-459.839c.462.177.424.665.58 1.019a.3.3 0 0 1-.343.425c-.476-.159-.5-.681-.65-1.073-.104-.266.222-.259.413-.371z" transform="translate(-811.839 461.661)" fill="#DFAC01"></path><path id="kardan-logo_svg__Path_217" data-name="Path 217" class="kardan-logo_svg__cls-3" d="M881.06-399.478c.323.236.921.084 1.019.655.025.148-.1.481-.353.365-.376-.175-.911-.162-1.057-.658a.324.324 0 0 1 .391-.362z" transform="translate(-852.015 420.537)" fill="#DFAC01"></path><path id="kardan-logo_svg__Path_218" data-name="Path 218" class="kardan-logo_svg__cls-3" d="M809.4-450.158c-.116.107-.2.237-.309.274-.5.165-.56-.382-.854-.561a.318.318 0 0 1-.057-.554c.192-.2.348-.262.539-.013.215.278.438.551.681.854z" transform="translate(-802.537 455.758)" fill="#DFAC01"></path><path id="kardan-logo_svg__Path_219" data-name="Path 219" class="kardan-logo_svg__cls-3" d="M803.97-444.208c-.092.187-.16.359-.38.354-.25-.005-1.044-.695-.983-.865s.181-.429.41-.332a1.907 1.907 0 0 1 .953.843z" transform="translate(-798.831 451.601)" fill="#DFAC01"></path><path id="kardan-logo_svg__Path_220" data-name="Path 220" class="kardan-logo_svg__cls-3" d="M808.453-382.281a1.312 1.312 0 0 1-.212-.134c-.17-.157-.359-.36-.093-.546.309-.216.4-.814.942-.619.218.078.369.27.1.505s-.39.595-.737.794z" transform="translate(-802.518 409.729)" fill="#DFAC01"></path><path id="kardan-logo_svg__Path_221" data-name="Path 221" class="kardan-logo_svg__cls-3" d="M864.622-455.75c-.01.277-.647 1.058-.814 1.011s-.44-.131-.339-.32c.2-.379.295-.872.72-1.063.136-.061.411.135.433.372z" transform="translate(-840.287 459.136)" fill="#DFAC01"></path><path id="kardan-logo_svg__Path_222" data-name="Path 222" class="kardan-logo_svg__cls-3" d="M875.081-389.4a2.341 2.341 0 0 1 1.1.757.513.513 0 0 1-.428.45 2.745 2.745 0 0 1-.971-.853.532.532 0 0 1 .299-.354z" transform="translate(-848.011 413.671)" fill="#DFAC01"></path><path id="kardan-logo_svg__Path_223" data-name="Path 223" class="kardan-logo_svg__cls-3" d="M864.214-377.532a2.922 2.922 0 0 1-.762-1.092.324.324 0 0 1 .362-.3c.487.11.624.581.789.962.107.244-.216.323-.389.43z" transform="translate(-840.289 406.537)" fill="#DFAC01"></path><path id="kardan-logo_svg__Path_224" data-name="Path 224" class="kardan-logo_svg__cls-3" d="M801.637-440.9c-.084.173-.188.391-.428.293-.377-.153-.818-.281-.977-.694-.055-.142.113-.43.408-.41.211.011 1.009.658.997.811z" transform="translate(-797.208 449.311)" fill="#DFAC01"></path><path id="kardan-logo_svg__Path_225" data-name="Path 225" class="kardan-logo_svg__cls-3" d="M800.539-391.384a.359.359 0 0 1-.143-.067c-.113-.125-.337-.288-.208-.432a1.934 1.934 0 0 1 1.061-.617c.167-.033.272.133.323.281s-.766.836-1.033.835z" transform="translate(-797.158 415.782)" fill="#DFAC01"></path><path id="kardan-logo_svg__Path_226" data-name="Path 226" class="kardan-logo_svg__cls-3" d="M815.666-378.606c-.251.321-.265.855-.733 1.007-.155.05-.525-.122-.428-.364a1.448 1.448 0 0 1 .8-.974c.158-.05.336.086.361.331z" transform="translate(-806.929 406.546)" fill="#DFAC01"></path><path id="kardan-logo_svg__Path_227" data-name="Path 227" class="kardan-logo_svg__cls-4" d="M830.375-461.364c.014.219.082.463-.246.521s-.385-.2-.407-.406c-.032-.314-.345-.62-.067-.942a.348.348 0 0 1 .431-.085c.284.228.252.588.289.912z" transform="translate(-817.184 463.351)" fill="#E3AF01"></path><path id="kardan-logo_svg__Path_228" data-name="Path 228" class="kardan-logo_svg__cls-4" d="M861.35-457.654c-.228.337-.314.813-.728 1.021-.114.057-.45-.1-.353-.352.151-.385.169-.9.661-1.041a.382.382 0 0 1 .42.372z" transform="translate(-838.109 460.431)" fill="#E3AF01"></path><path id="kardan-logo_svg__Path_229" data-name="Path 229" class="kardan-logo_svg__cls-4" d="M861.319-376.091a.35.35 0 0 1-.378.4c-.506-.009-.419-.534-.622-.812a.325.325 0 0 1 .14-.54c.232-.115.317.01.41.177.151.266.308.531.45.775z" transform="translate(-838.091 405.28)" fill="#E3AF01"></path><path id="kardan-logo_svg__Path_230" data-name="Path 230" class="kardan-logo_svg__cls-4" d="M830.378-372.34c-.011.055-.063.271-.1.489-.041.257-.182.331-.424.27a.333.333 0 0 1-.276-.445c.044-.2.088-.391.15-.58s.081-.465.408-.414.272.293.242.68z" transform="translate(-817.201 402.512)" fill="#E3AF01"></path><path id="kardan-logo_svg__Path_231" data-name="Path 231" class="kardan-logo_svg__cls-3" d="M814.913-456.057c.333.075.383.4.513.632.1.176.329.342.17.586-.072.11-.228.214-.341.153a1.711 1.711 0 0 1-.771-1.022c-.063-.192.246-.261.429-.349z" transform="translate(-806.919 459.084)" fill="#DFAC01"></path><path id="kardan-logo_svg__Path_232" data-name="Path 232" class="kardan-logo_svg__cls-3" d="M879.461-395.82c.277.238.865.137.945.689.02.142-.11.469-.357.361-.386-.169-.856-.289-1.03-.726-.051-.125.122-.377.442-.324z" transform="translate(-850.89 418.047)" fill="#DFAC01"></path><path id="kardan-logo_svg__Path_233" data-name="Path 233" class="kardan-logo_svg__cls-3" d="M879.433-437.164c-.318.033-.48-.228-.423-.348a1.677 1.677 0 0 1 1.049-.713c.239-.092.371.242.343.381-.109.528-.676.452-.969.68z" transform="translate(-850.882 446.946)" fill="#DFAC01"></path><path id="kardan-logo_svg__Path_234" data-name="Path 234" class="kardan-logo_svg__cls-2" d="M841.712-462.436c.107-.261-.209-.729.389-.735.39 0 .361.283.313.511-.07.325.224.863-.337.923-.488.052-.298-.427-.365-.699z" transform="translate(-825.477 463.931)" fill="#E4B001"></path><path id="kardan-logo_svg__Path_235" data-name="Path 235" class="kardan-logo_svg__cls-4" d="M842.426-371.17c-.033.14.2.52-.3.543s-.349-.345-.372-.606c-.011-.132 0-.267 0-.4-.009-.25.05-.452.351-.451.265 0 .323.188.325.409-.003.134-.004.267-.004.505z" transform="translate(-825.502 401.869)" fill="#E3AF01"></path><path id="kardan-logo_svg__Path_236" data-name="Path 236" class="kardan-logo_svg__cls-2" d="M870.91-382.736c-.059.2-.249.4-.41.348a1.543 1.543 0 0 1-.848-.89c-.1-.207.133-.307.3-.358.131-.041.948.736.958.9z" transform="translate(-844.496 409.741)" fill="#E4B001"></path><path id="kardan-logo_svg__Path_237" data-name="Path 237" class="kardan-logo_svg__cls-2" d="M870.918-450.661c0 .154-.806.939-.947.907-.175-.039-.4-.151-.318-.343a1.591 1.591 0 0 1 .838-.907c.169-.062.345.158.427.343z" transform="translate(-844.501 455.648)" fill="#E4B001"></path><path id="kardan-logo_svg__Path_238" data-name="Path 238" d="M814.578-429.367a12.185 12.185 0 0 1-12.233-12.3 12.244 12.244 0 0 1 12.294-12.267 12.338 12.338 0 0 1 12.235 12.6 12.284 12.284 0 0 1-12.296 11.967zm9.64-11.988a9.675 9.675 0 0 0-1.811-5.909c-.153-.212-.279-.477-.591-.5a3.24 3.24 0 0 0-2.742.776c-1.363 1.385-2.708 2.787-4.076 4.167-.292.294-.258.491.009.776 1.616 1.729 3.214 3.474 4.823 5.208a4.2 4.2 0 0 0 1.616 1.16.706.706 0 0 0 .954-.31 9.471 9.471 0 0 0 1.817-5.368zm-16.2-7.168h5.674c.241 0 .377.1.385.351s-.089.382-.34.4a4.232 4.232 0 0 0-.666.063c-.571.135-1.106.375-1.12 1.056-.031 1.54-.013 3.082-.015 4.623 0 .266.1.423.348.2a34.356 34.356 0 0 0 4.606-4.469c.64-.819.363-1.328-.7-1.459-.257-.032-.571.021-.563-.394.009-.469.359-.37.631-.372 1.475-.005 2.949 0 4.424-.008.156 0 .359.1.47-.115-3.23-3.487-10.013-3.484-13.137.124zm4.076 7.112-.159.049v4.065c0 1.341.265 1.635 1.6 1.768.276.027.557.021.539.421-.019.417-.327.35-.586.351-1.609 0-3.218 0-4.827.007-.18 0-.4-.1-.546.111 3.538 3.762 10.236 3.261 13.037-.116h-1.834a3.133 3.133 0 0 1-2.386-1.03c-.43-.453-.832-.932-1.239-1.407q-1.804-2.108-3.603-4.219zm-2.911-.2c0-1.61-.009-3.22 0-4.83a1.152 1.152 0 0 0-.937-1.213 1.156 1.156 0 0 0-1.5.445 9.7 9.7 0 0 0-.038 11.078 1.181 1.181 0 0 0 1.539.5 1.192 1.192 0 0 0 .938-1.285c-.021-1.562-.006-3.127-.006-4.693zm16.951 2.923a.961.961 0 0 0-.82-.98.981.981 0 0 0-.976.834.976.976 0 0 0 .831.976.932.932 0 0 0 .961-.828zm-8.654 6.829a.943.943 0 0 0-.928.871 1 1 0 0 0 .888.928.955.955 0 0 0 .914-.887.9.9 0 0 0-.877-.909zm-2-20.8a.832.832 0 0 0-.9-.864.851.851 0 0 0-.857.859.874.874 0 0 0 .887.9.832.832 0 0 0 .863-.89zm-6.342.609a.9.9 0 0 0-.917.873.879.879 0 0 0 .9.88.793.793 0 0 0 .855-.831.841.841 0 0 0-.845-.917zm-2.318 1.75a.875.875 0 0 0-.872.91.868.868 0 0 0 .935.841.8.8 0 0 0 .82-.869.841.841 0 0 0-.89-.877zm16.436 1.044c.019-.651-.337-1.039-.84-1.045a.886.886 0 0 0-.912.874.87.87 0 0 0 .9.878.787.787 0 0 0 .844-.702zm-2.278-1.9a.834.834 0 0 0-.868-.889.872.872 0 0 0-.88.9.84.84 0 0 0 .852.855.843.843 0 0 0 .889-.865zm3.2 4.9a.832.832 0 0 0 .822-.933.812.812 0 0 0-.874-.819.871.871 0 0 0-.879.9.885.885 0 0 0 .927.851zm-18.227-.9a.84.84 0 0 0-.9-.858.9.9 0 0 0-.846.94.84.84 0 0 0 .891.815.824.824 0 0 0 .852-.896zm15.023 15.06a.838.838 0 0 0-.909-.858.875.875 0 0 0-.841.883.961.961 0 0 0 .895.916.943.943 0 0 0 .852-.945zm-13.276-1.753a.874.874 0 0 0-.836-.867.956.956 0 0 0-.915.893.95.95 0 0 0 .9.912.945.945 0 0 0 .847-.937zm2.277 1.81a.882.882 0 0 0-.848-.931.944.944 0 0 0-.9.908.9.9 0 0 0 .834.9.917.917 0 0 0 .911-.876zm1.793-21.1a.866.866 0 0 0-.875.9.87.87 0 0 0 .907.868.85.85 0 0 0 .844-.868.865.865 0 0 0-.879-.9zm-7.753 9.549a.852.852 0 0 0 .844-.922.828.828 0 0 0-.865-.834.859.859 0 0 0-.884.885.876.876 0 0 0 .902.871zm11.46 12.988a.878.878 0 0 0-.822-.89.971.971 0 0 0-.934.873.969.969 0 0 0 .881.933.933.933 0 0 0 .872-.914zm-10.61-8.151a.9.9 0 0 0-.886-.9.864.864 0 0 0-.866.85.943.943 0 0 0 .85.945.948.948 0 0 0 .899-.894zm.229 1.751a.926.926 0 0 0-.891.9.823.823 0 0 0 .838.856.835.835 0 0 0 .91-.844.877.877 0 0 0-.86-.91zm7.551 6.015a.9.9 0 0 0-.909-.873.863.863 0 0 0-.844.871.948.948 0 0 0 .874.926.963.963 0 0 0 .877-.923zm12.991-11.52a.92.92 0 0 0-.908.88.823.823 0 0 0 .82.874.827.827 0 0 0 .928-.821.875.875 0 0 0-.843-.932zm-.636 6.446a.873.873 0 0 0-.832-.937.936.936 0 0 0-.916.878.829.829 0 0 0 .818.877.832.832 0 0 0 .93-.818zm-1.746 2.257a.871.871 0 0 0-.858-.912.929.929 0 0 0-.89.9.83.83 0 0 0 .844.853.827.827 0 0 0 .901-.837zm-18.773-7.843a.883.883 0 0 0-.912-.859.93.93 0 0 0-.844.947.843.843 0 0 0 .9.807.837.837 0 0 0 .854-.895zm12.951-11.484a.923.923 0 0 0-.877.907.952.952 0 0 0 .951.844.813.813 0 0 0 .8-.882.821.821 0 0 0-.876-.869zm7.684 9.54a.88.88 0 0 0 .977-.867.849.849 0 0 0-.865-.888.929.929 0 0 0-.881.9.885.885 0 0 0 .766.854z" transform="translate(-798.654 457.641)" style="" fill="#664F00"></path><path id="kardan-logo_svg__Path_239" data-name="Path 239" d="M850.833-428.2a9.47 9.47 0 0 1-1.817 5.368.706.706 0 0 1-.954.31 4.2 4.2 0 0 1-1.616-1.16c-1.609-1.735-3.208-3.48-4.823-5.208-.266-.285-.3-.481-.009-.776 1.368-1.379 2.713-2.782 4.076-4.167a3.24 3.24 0 0 1 2.742-.776c.312.022.439.287.591.5a9.675 9.675 0 0 1 1.81 5.909z" transform="translate(-825.269 444.483)" style="" fill="#E8B301"></path><path id="kardan-logo_svg__Path_240" data-name="Path 240" class="kardan-logo_svg__cls-7" d="M820.138-442.765c3.125-3.608 9.907-3.611 13.137-.12-.111.216-.314.114-.47.115-1.474.009-2.949 0-4.424.008-.272 0-.622-.1-.631.372-.008.415.306.362.563.394 1.06.131 1.337.64.7 1.459a34.349 34.349 0 0 1-4.606 4.47c-.251.22-.348.062-.348-.2 0-1.541-.017-3.082.015-4.623.014-.681.55-.921 1.12-1.056a4.228 4.228 0 0 1 .666-.063c.252-.018.348-.159.34-.4s-.144-.352-.385-.352h-2.346z" transform="translate(-810.777 451.883)" fill="#E7B101"></path><path id="kardan-logo_svg__Path_241" data-name="Path 241" class="kardan-logo_svg__cls-7" d="m824.43-414.625 3.6 4.218c.407.475.809.953 1.239 1.407a3.133 3.133 0 0 0 2.386 1.03c.6-.005 1.2 0 1.834 0-2.8 3.378-9.5 3.879-13.037.116.146-.212.366-.11.546-.111 1.609-.009 3.218 0 4.827-.007.259 0 .567.067.586-.35.018-.4-.264-.393-.539-.421-1.339-.133-1.6-.427-1.6-1.768v-4.065z" transform="translate(-810.994 430.855)" fill="#E7B101"></path><path id="kardan-logo_svg__Path_242" data-name="Path 242" d="M814.842-428.383c0 1.565-.015 3.131.007 4.7a1.192 1.192 0 0 1-.937 1.285 1.181 1.181 0 0 1-1.539-.5 9.7 9.7 0 0 1 .038-11.078 1.156 1.156 0 0 1 1.5-.445 1.152 1.152 0 0 1 .938 1.213c-.016 1.608-.008 3.216-.007 4.825z" transform="translate(-804.316 444.415)" style="" fill="#E6B101"></path><path id="kardan-logo_svg__Path_243" data-name="Path 243" class="kardan-logo_svg__cls-4" d="M873.142-408.174a.932.932 0 0 1-.965.83.977.977 0 0 1-.831-.976.981.981 0 0 1 .976-.834.961.961 0 0 1 .82.98z" transform="translate(-845.665 427.129)" fill="#E3AF01"></path><path id="kardan-logo_svg__Path_244" data-name="Path 244" class="kardan-logo_svg__cls-4" d="M847.849-384.641a.9.9 0 0 1 .875.911.955.955 0 0 1-.914.887 1 1 0 0 1-.888-.928.943.943 0 0 1 .927-.87z" transform="translate(-829.026 410.426)" fill="#E3AF01"></path><path id="kardan-logo_svg__Path_245" data-name="Path 245" class="kardan-logo_svg__cls-4" d="M839.79-451.76a.832.832 0 0 1-.866.892.874.874 0 0 1-.887-.9.851.851 0 0 1 .857-.859.832.832 0 0 1 .896.867z" transform="translate(-822.971 456.747)" fill="#E3AF01"></path><path id="kardan-logo_svg__Path_246" data-name="Path 246" class="kardan-logo_svg__cls-4" d="M821.679-448a.841.841 0 0 1 .841.922.793.793 0 0 1-.855.831.879.879 0 0 1-.9-.88.9.9 0 0 1 .914-.873z" transform="translate(-811.202 453.593)" fill="#E3AF01"></path><path id="kardan-logo_svg__Path_247" data-name="Path 247" class="kardan-logo_svg__cls-4" d="M814.5-442.506a.841.841 0 0 1 .882.883.8.8 0 0 1-.82.869.868.868 0 0 1-.935-.841.875.875 0 0 1 .873-.911z" transform="translate(-806.342 449.852)" fill="#E3AF01"></path><path id="kardan-logo_svg__Path_248" data-name="Path 248" class="kardan-logo_svg__cls-4" d="M864.2-441.462a.787.787 0 0 1-.85.708.87.87 0 0 1-.9-.878.886.886 0 0 1 .912-.874c.5.006.856.393.838 1.044z" transform="translate(-839.604 449.852)" fill="#E3AF01"></path><path id="kardan-logo_svg__Path_249" data-name="Path 249" class="kardan-logo_svg__cls-4" d="M857.053-447.107a.843.843 0 0 1-.9.864.839.839 0 0 1-.852-.855.871.871 0 0 1 .88-.9.834.834 0 0 1 .872.891z" transform="translate(-834.736 453.592)" fill="#E3AF01"></path><path id="kardan-logo_svg__Path_250" data-name="Path 250" class="kardan-logo_svg__cls-4" d="M868.857-433.581a.885.885 0 0 1-.931-.851.871.871 0 0 1 .879-.9.812.812 0 0 1 .874.819.832.832 0 0 1-.822.932z" transform="translate(-843.338 444.964)" fill="#E3AF01"></path><path id="kardan-logo_svg__Path_251" data-name="Path 251" class="kardan-logo_svg__cls-4" d="M809.9-434.491a.824.824 0 0 1-.86.9.84.84 0 0 1-.891-.815.9.9 0 0 1 .846-.94.84.84 0 0 1 .905.855z" transform="translate(-802.604 444.977)" fill="#E3AF01"></path><path id="kardan-logo_svg__Path_252" data-name="Path 252" class="kardan-logo_svg__cls-2" d="M857.055-387.242a.943.943 0 0 1-.855.941.961.961 0 0 1-.895-.916.875.875 0 0 1 .841-.883.838.838 0 0 1 .909.858z" transform="translate(-834.738 412.787)" fill="#E4B001"></path><path id="kardan-logo_svg__Path_253" data-name="Path 253" class="kardan-logo_svg__cls-4" d="M815.387-392.747a.945.945 0 0 1-.855.937.951.951 0 0 1-.9-.912.956.956 0 0 1 .915-.893.874.874 0 0 1 .84.868z" transform="translate(-806.347 416.539)" fill="#E3AF01"></path><path id="kardan-logo_svg__Path_254" data-name="Path 254" class="kardan-logo_svg__cls-4" d="M822.541-387.2a.917.917 0 0 1-.914.876.9.9 0 0 1-.833-.9.944.944 0 0 1 .9-.908.882.882 0 0 1 .847.932z" transform="translate(-811.223 412.805)" fill="#E3AF01"></path><path id="kardan-logo_svg__Path_255" data-name="Path 255" class="kardan-logo_svg__cls-4" d="M830.036-451.43a.865.865 0 0 1 .876.9.851.851 0 0 1-.844.868.87.87 0 0 1-.907-.868.866.866 0 0 1 .875-.9z" transform="translate(-816.925 455.932)" fill="#E3AF01"></path><path id="kardan-logo_svg__Path_256" data-name="Path 256" class="kardan-logo_svg__cls-2" d="M805.643-425.219a.877.877 0 0 1-.9-.871.859.859 0 0 1 .884-.885.828.828 0 0 1 .865.834.852.852 0 0 1-.849.922z" transform="translate(-800.285 439.269)" fill="#E4B001"></path><path id="kardan-logo_svg__Path_257" data-name="Path 257" class="kardan-logo_svg__cls-4" d="M839.787-382.607a.933.933 0 0 1-.875.916.969.969 0 0 1-.881-.933.971.971 0 0 1 .934-.873.878.878 0 0 1 .822.89z" transform="translate(-822.969 409.646)" fill="#E3AF01"></path><path id="kardan-logo_svg__Path_258" data-name="Path 258" class="kardan-logo_svg__cls-2" d="M806.495-408.212a.948.948 0 0 1-.9.9.943.943 0 0 1-.85-.945.865.865 0 0 1 .866-.85.9.9 0 0 1 .884.895z" transform="translate(-800.287 427.1)" fill="#E4B001"></path><path id="kardan-logo_svg__Path_259" data-name="Path 259" class="kardan-logo_svg__cls-2" d="M809.056-400.786a.877.877 0 0 1 .857.913.835.835 0 0 1-.91.844.823.823 0 0 1-.838-.856.926.926 0 0 1 .891-.901z" transform="translate(-802.619 421.426)" fill="#E4B001"></path><path id="kardan-logo_svg__Path_260" data-name="Path 260" class="kardan-logo_svg__cls-2" d="M830.911-383.787a.963.963 0 0 1-.88.924.948.948 0 0 1-.874-.926.863.863 0 0 1 .844-.871.9.9 0 0 1 .91.873z" transform="translate(-816.923 410.442)" fill="#E4B001"></path><path id="kardan-logo_svg__Path_261" data-name="Path 261" class="kardan-logo_svg__cls-2" d="M873.485-418.062a.874.874 0 0 1 .84.933.827.827 0 0 1-.928.821.823.823 0 0 1-.82-.874.92.92 0 0 1 .908-.88z" transform="translate(-846.506 433.197)" fill="#E4B001"></path><path id="kardan-logo_svg__Path_262" data-name="Path 262" class="kardan-logo_svg__cls-2" d="M869.691-399.842a.832.832 0 0 1-.93.818.829.829 0 0 1-.818-.877.936.936 0 0 1 .916-.878.873.873 0 0 1 .832.937z" transform="translate(-843.348 421.421)" fill="#E4B001"></path><path id="kardan-logo_svg__Path_263" data-name="Path 263" class="kardan-logo_svg__cls-2" d="M864.211-392.7a.827.827 0 0 1-.9.844.83.83 0 0 1-.844-.853.929.929 0 0 1 .89-.9.871.871 0 0 1 .854.909z" transform="translate(-839.614 416.539)" fill="#E4B001"></path><path id="kardan-logo_svg__Path_264" data-name="Path 264" class="kardan-logo_svg__cls-4" d="M805.277-417.205a.837.837 0 0 1-.861.895.843.843 0 0 1-.9-.807.93.93 0 0 1 .844-.947.883.883 0 0 1 .917.859z" transform="translate(-799.453 433.199)" fill="#E3AF01"></path><path id="kardan-logo_svg__Path_265" data-name="Path 265" class="kardan-logo_svg__cls-2" d="M847.808-451.407a.821.821 0 0 1 .876.869.813.813 0 0 1-.8.882.952.952 0 0 1-.951-.844.923.923 0 0 1 .875-.907z" transform="translate(-829.033 455.917)" fill="#E4B001"></path><path id="kardan-logo_svg__Path_266" data-name="Path 266" class="kardan-logo_svg__cls-2" d="M872.143-425.222a.886.886 0 0 1-.77-.852.929.929 0 0 1 .881-.9.849.849 0 0 1 .865.888.88.88 0 0 1-.976.864z" transform="translate(-845.683 439.271)" fill="#E4B001"></path></g></svg>