<svg xmlns:xlink="http://www.w3.org/1999/xlink" id="logo-text_svg__Layer_1" data-name="Layer 1" xmlns="http://www.w3.org/2000/svg" viewBox="0 0 99.63 32.5" width="99.63" class="logoText_logoText__u3X0R transition-all duration-300 opacity-0 peer-hover:opacity-100" height="32.5" ><defs><style>.logo-text_svg__cls-1{fill:#b9b7c0}.logo-text_svg__cls-2{fill:#7b7b88}</style></defs><g id="logo-text_svg__Group_1267" data-name="Group 1267"><g id="logo-text_svg__Group_657" data-name="Group 657"><path id="logo-text_svg__Path_158" data-name="Path 158" class="logo-text_svg__cls-1" d="M86.13 11.31C87.53 9.44 88.9 7.65 90.4 6c.59-.67 1.2-1.33 1.8-2a3.55 3.55 0 0 1 2.67-1.2h4.2c.28 0 .54 0 .56.4s-.17.52-.54.52a4.5 4.5 0 0 0-3.5 1.7c-1.45 1.58-2.92 3.12-4.38 4.7-.25.27-.54.44 0 .77A4.79 4.79 0 0 1 88.87 20c-5.32.05-10.63 0-15.94 0-.29 0-.53 0-.54-.42s.19-.49.54-.54c1.9-.27 2.16-.57 2.16-2.46V6c0-1.61-.39-2.05-2-2.28-.33 0-.75.07-.68-.55s.5-.34.76-.34h7.3c.27 0 .63-.14.67.38s-.31.47-.63.51c-1.74.24-2.07.62-2.07 2.38v10.8c0 1.46.42 2 1.9 2.09a46.28 46.28 0 0 0 6.45 0 3.58 3.58 0 0 0 3.59-3.54v-.13a4 4 0 0 0-3.55-4h-.68Z" transform="translate(0 -2.76)" fill="#B9B7C0"></path><path id="logo-text_svg__Path_159" data-name="Path 159" class="logo-text_svg__cls-1" d="M23.14 9.2h3.69c.28 0 .63-.13.66.39s-.23.46-.56.51c-1.82.27-2.07.58-2.08 2.44 0 1.51 0 3-.05 4.52-.11 4-2.33 6.57-5.95 7.86a15 15 0 0 1-10.27 0c-3.95-1.43-5.87-4.33-5.89-8.52v-3.97c0-1.72-.33-2.1-2-2.33H.45c-.38 0-.45-.18-.45-.48s.16-.43.47-.43h7.8c.28 0 .47 0 .49.4s-.12.49-.47.51a3.81 3.81 0 0 0-1.07.18c-.6.18-1.1.54-1.11 1.21a44.79 44.79 0 0 0 .16 7.94 6.09 6.09 0 0 0 5.79 5.36 16.57 16.57 0 0 0 3.52 0 6.28 6.28 0 0 0 5.81-5.92c.22-2.37.07-4.75.09-7.12a1.47 1.47 0 0 0-1.23-1.49 4.75 4.75 0 0 0-1-.16c-.37 0-.48-.15-.46-.51s.21-.39.5-.39Z" transform="translate(0 -2.76)" fill="#B9B7C0"></path><path id="logo-text_svg__Path_160" data-name="Path 160" class="logo-text_svg__cls-1" d="M35.27 2.81h3.78c.29 0 .61-.08.63.42s-.28.43-.58.47c-1.55.2-2.17.52-2.14 2.41C37 9.74 37 13.37 37 17c0 1.35.4 1.8 1.73 2h.16c.34.08.85-.1.8.56s-.51.39-.81.39h-7.29c-.28 0-.62.12-.64-.4s.28-.51.63-.54a6 6 0 0 0 .74-.11 1.52 1.52 0 0 0 1.32-1.67V5.5a1.53 1.53 0 0 0-1.34-1.66 4.52 4.52 0 0 0-.82-.13c-.34 0-.58-.06-.55-.51s.3-.38.57-.38Z" transform="translate(0 -2.76)" fill="#B9B7C0"></path><path id="logo-text_svg__Path_161" data-name="Path 161" class="logo-text_svg__cls-1" d="M64.62 9.2h3.69c.3 0 .61-.07.62.43s-.3.43-.59.48c-1.77.26-2.09.65-2.11 2.46a38.34 38.34 0 0 1-.1 5.77 8.75 8.75 0 0 1-7.47 7.06c-.55.09-1.1.16-1.65.2-.26 0-.64.24-.73-.26s.28-.51.62-.54a6.82 6.82 0 0 0 2.71-.8 6.27 6.27 0 0 0 3.23-5.26c.21-2.31.06-4.63.08-7a1.48 1.48 0 0 0-1.26-1.54 6 6 0 0 0-.83-.14c-.3 0-.61 0-.6-.47s.31-.43.62-.43Z" transform="translate(0 -2.76)" fill="#B9B7C0"></path><path id="logo-text_svg__Path_162" data-name="Path 162" class="logo-text_svg__cls-1" d="M50.1 20h-6c-.29 0-.69.17-.7-.42s.4-.47.73-.47c1.59 0 3.19 0 4.77-.09s1.92-.63 1.92-2.15v-3.44a4.76 4.76 0 0 0-4.61-4.9h-1.55c-.34 0-.42-.16-.42-.46s.08-.45.42-.47a10 10 0 0 1 7.58 2.48 6.31 6.31 0 0 1 1.9 4.58c.06.78 0 1.57 0 2.35 0 1.36.43 1.83 1.8 2a3 3 0 0 0 .42.05c.34 0 .47.14.47.5s-.2.44-.51.44h-6.2Z" transform="translate(0 -2.76)" fill="#B9B7C0"></path><path id="logo-text_svg__Path_163" data-name="Path 163" class="logo-text_svg__cls-1" d="M13.8 6.54a1.87 1.87 0 1 1-.11-3.73h.05a1.87 1.87 0 0 1 1.93 1.81v.06a1.89 1.89 0 0 1-1.87 1.86Z" transform="translate(0 -2.76)" fill="#B9B7C0"></path></g><g id="logo-text_svg__Group_658" data-name="Group 658"><path id="logo-text_svg__Path_267" data-name="Path 267" class="logo-text_svg__cls-2" d="m3.92 31.59-.38.8A2.76 2.76 0 0 1 4 33a1.47 1.47 0 0 1 .29.65c0 .27-.23.46-.69.59a3.74 3.74 0 0 1-1 .11 2 2 0 0 1-.9-.15.74.74 0 0 1-.42-.73 1.74 1.74 0 0 1 .12-.5 2.85 2.85 0 0 0 .11-.39q0-.21-.15-.21c-.14 0-.28.22-.42.65a3.56 3.56 0 0 0-.17.85 1.32 1.32 0 0 0 .33 1 1.6 1.6 0 0 0 1.27.47A3.08 3.08 0 0 0 4 34.9a1.66 1.66 0 0 0 .66-1.5A3.21 3.21 0 0 0 4 31.6c0-.06-.06-.06-.09 0Z" transform="translate(0 -2.76)" fill="#7B7B88"></path><path id="logo-text_svg__Path_268" data-name="Path 268" class="logo-text_svg__cls-2" d="m3.16 31.09-.5-.5-.5.5.5.5Z" transform="translate(0 -2.76)" fill="#7B7B88"></path><path id="logo-text_svg__Path_269" data-name="Path 269" class="logo-text_svg__cls-2" d="M5.88 28.59a.16.16 0 0 0-.1.05l-.67.56.35 3.9c0 .23 0 .34.07.34s.06 0 .1-.15a2.23 2.23 0 0 0 .28-.86v-3.84Z" transform="translate(0 -2.76)" fill="#7B7B88"></path><path id="logo-text_svg__Path_270" data-name="Path 270" class="logo-text_svg__cls-2" d="M7.62 30h-.08v.09l-.22.83a2.19 2.19 0 0 1 .77.47q.51.43.51.72c0 .11-.16.19-.48.25a4.18 4.18 0 0 1-.61 0 .76.76 0 0 1-.6-.17.53.53 0 0 1-.1-.32c0-.11-.06-.17-.13-.17s-.23.16-.27.49a1.09 1.09 0 0 0 0 .18q0 .9 1 .9c1.11 0 1.67-.45 1.67-1.34a1.85 1.85 0 0 0-.45-1.12A3.74 3.74 0 0 0 7.62 30Z" transform="translate(0 -2.76)" fill="#7B7B88"></path><path id="logo-text_svg__Path_271" data-name="Path 271" class="logo-text_svg__cls-2" d="m10.83 31.42-.36.76a2.27 2.27 0 0 1 .41.41 1 1 0 0 1 .25.5c0 .28-.23.6-.69.95a4.87 4.87 0 0 1-1.28.71c-.07 0-.06 0 0 .07a4.05 4.05 0 0 0 1.47.19s.12-.07.26-.22A2.43 2.43 0 0 0 11.6 33a2.18 2.18 0 0 0-.68-1.6s-.07 0-.09 0Z" transform="translate(0 -2.76)" fill="#7B7B88"></path><path id="logo-text_svg__Path_272" data-name="Path 272" class="logo-text_svg__cls-2" d="M17.2 30.62a3.58 3.58 0 0 1 .77.68 1.39 1.39 0 0 1 .46.74c0 .1-.07.17-.22.21a5.25 5.25 0 0 1-1.05.07H13.4c-.39 0-.58-.17-.58-.52v-3.2a.38.38 0 0 0-.13.09l-.6.49a.18.18 0 0 0 0 .14c0 .22.08.67.13 1.35s.05 1.07.05 1.37a1.31 1.31 0 0 0 .34 1 .9.9 0 0 0 .63.24h4.1c1 0 1.55-.48 1.55-1.43a1.53 1.53 0 0 0-.28-.87 6.09 6.09 0 0 0-.66-.77c.91-.32 1.56-.55 1.95-.67l.1-.84c-1.2.43-2.08.76-2.64 1Z" transform="translate(0 -2.76)" fill="#7B7B88"></path><path id="logo-text_svg__Path_273" data-name="Path 273" class="logo-text_svg__cls-2" d="m29.55 34.37.45.45.45-.45-.45-.45Z" transform="translate(0 -2.76)" fill="#7B7B88"></path><path id="logo-text_svg__Path_274" data-name="Path 274" class="logo-text_svg__cls-2" d="M28.7 33.26a.93.93 0 0 0 .88-.51 1.89 1.89 0 0 0 .21-.93 1.59 1.59 0 0 0-.1-.57 1.43 1.43 0 0 0-.27-.5s-.08 0-.11 0l-.43.6a.08.08 0 0 0 0 .12c.27.3.41.51.41.63s-.18.2-.53.2h-4a.53.53 0 0 1-.35-.1 1.3 1.3 0 0 1-.25-.66c-.09-.54-.2-1.07-.34-1.6l-.51.6c.05.15.09.27.11.35a3.44 3.44 0 0 0-1.14.7 2.1 2.1 0 0 0-.24.77c0 .33.48.5 1.44.5l.31-.5c.18.6.46.9.86.9h4.05Zm-6.09-1.37a2.11 2.11 0 0 1 .9-.53c.08.33.15.57.2.74-.65 0-1-.07-1.1-.21Z" transform="translate(0 -2.76)" fill="#7B7B88"></path><path id="logo-text_svg__Path_275" data-name="Path 275" class="logo-text_svg__cls-2" d="m28.54 34.37.46.45.45-.45-.45-.45Z" transform="translate(0 -2.76)" fill="#7B7B88"></path><path id="logo-text_svg__Path_276" data-name="Path 276" class="logo-text_svg__cls-2" d="M37.36 31a.87.87 0 0 0-.69.36 1 1 0 0 0-.23.7v.2a.89.89 0 0 1-.4.06H32.2c-.39 0-.59-.17-.59-.52v-3.2a.34.34 0 0 0-.12.09l-.6.49v.14c0 .07.08.67.12 1.35S31 31.74 31 32a1.27 1.27 0 0 0 .34 1 .9.9 0 0 0 .62.25h4a.77.77 0 0 0 .7-.46 1 1 0 0 0 .84.54.85.85 0 0 0 .61-.24.84.84 0 0 0 .23-.62 2.07 2.07 0 0 0-.22-1 .86.86 0 0 0-.8-.52Zm.3 1.66c-.15 0-.28-.11-.39-.34a1.19 1.19 0 0 1-.13-.53c0-.22.08-.33.25-.33s.26.1.38.32a1.08 1.08 0 0 1 .15.5c0 .25-.09.38-.26.38Z" transform="translate(0 -2.76)" fill="#7B7B88"></path><path id="logo-text_svg__Path_277" data-name="Path 277" class="logo-text_svg__cls-2" d="m45.77 30.93-.08-.08a.36.36 0 0 0-.07.1l-.34.52a1.27 1.27 0 0 1 .32.55c0 .21-.16.31-.46.31a.48.48 0 0 1-.46-.22 1.62 1.62 0 0 1-.12-.43c0-.15-.09-.22-.17-.22s-.16.07-.2.22a2.25 2.25 0 0 1-.13.42.5.5 0 0 1-.45.22.46.46 0 0 1-.44-.22 1.66 1.66 0 0 1-.12-.42c0-.15-.1-.22-.19-.22s-.15.07-.18.22a2 2 0 0 1-.13.41.53.53 0 0 1-.47.23h-.74c-.31 0-.65-.25-1-.76h-.08l-.39.78a3.42 3.42 0 0 1 .42.43.89.89 0 0 1 .25.49c0 .25-.23.55-.7.9a4.68 4.68 0 0 1-1.29.72c-.06 0-.06 0 0 .07a4.28 4.28 0 0 0 1.47.19.86.86 0 0 0 .26-.2 2.39 2.39 0 0 0 .72-1.78 1 1 0 0 0 .52.1H42a1 1 0 0 0 .9-.51.83.83 0 0 0 .76.51.8.8 0 0 0 .72-.51.87.87 0 0 0 .75.51.79.79 0 0 0 .75-.5 2 2 0 0 0 .21-.91 1.63 1.63 0 0 0-.13-.57 1.16 1.16 0 0 0-.18-.35Z" transform="translate(0 -2.76)" fill="#7B7B88"></path><path id="logo-text_svg__Path_278" data-name="Path 278" class="logo-text_svg__cls-2" d="m51.45 31.08-.5-.5-.5.5.5.5Z" transform="translate(0 -2.76)" fill="#7B7B88"></path><path id="logo-text_svg__Path_279" data-name="Path 279" class="logo-text_svg__cls-2" d="m58.29 34.37.46.45.44-.45-.45-.45Z" transform="translate(0 -2.76)" fill="#7B7B88"></path><path id="logo-text_svg__Path_280" data-name="Path 280" class="logo-text_svg__cls-2" d="m57.28 34.37.46.45.45-.45-.45-.45Z" transform="translate(0 -2.76)" fill="#7B7B88"></path><path id="logo-text_svg__Path_281" data-name="Path 281" class="logo-text_svg__cls-2" d="M61.25 31a.83.83 0 0 0-.69.36 1 1 0 0 0-.23.7v.2a.93.93 0 0 1-.4.06h-.51a.71.71 0 0 1-.61-.25 1.33 1.33 0 0 1-.14-.44c0-.16-.08-.24-.17-.24s-.15.08-.18.24a1 1 0 0 1-.17.44.92.92 0 0 1-.74.25h-4.27a.82.82 0 0 1-.53-.21 3.48 3.48 0 0 1-.38-.48c0-.05-.07-.05-.1 0l-.36.75a3.87 3.87 0 0 1 .49.57 1.37 1.37 0 0 1 .32.65c0 .22-.18.4-.55.53a2.75 2.75 0 0 1-1.06.18 2 2 0 0 1-.9-.15.73.73 0 0 1-.41-.73 1.72 1.72 0 0 1 .11-.5 1.9 1.9 0 0 0 .11-.39q0-.21-.15-.21c-.14 0-.27.22-.41.65a3.15 3.15 0 0 0-.18.85 1.37 1.37 0 0 0 .34 1 1.56 1.56 0 0 0 1.26.47 2.71 2.71 0 0 0 1.52-.37 1.49 1.49 0 0 0 .67-1.34 2.19 2.19 0 0 0 0-.36.85.85 0 0 0 .41.09h4.16a1 1 0 0 0 .94-.55 1.05 1.05 0 0 0 .41.4 1.08 1.08 0 0 0 .55.15h.47a.76.76 0 0 0 .7-.45 1 1 0 0 0 .84.53.81.81 0 0 0 .61-.24.83.83 0 0 0 .23-.62 2.1 2.1 0 0 0-.22-1 .87.87 0 0 0-.78-.51Zm.29 1.66c-.14 0-.27-.11-.38-.34a1.19 1.19 0 0 1-.13-.53c0-.22.08-.33.25-.33s.26.1.37.32a1 1 0 0 1 .16.5c0 .25-.09.38-.26.38Z" transform="translate(0 -2.76)" fill="#7B7B88"></path><path id="logo-text_svg__Path_282" data-name="Path 282" class="logo-text_svg__cls-2" d="M63.79 28a.61.61 0 0 0 0-.19l-.28.09a1.4 1.4 0 0 1-.28.06.52.52 0 0 1-.27-.1.31.31 0 0 1-.12-.23c0-.06 0-.1.11-.14a.46.46 0 0 1 .2-.05.53.53 0 0 1 .2.05l.17.05c.07 0 .11-.05.11-.15s-.05-.13-.16-.19a.5.5 0 0 0-.24-.09.76.76 0 0 0-.47.24.66.66 0 0 0-.25.45.36.36 0 0 0 .09.23.55.55 0 0 0 .2.17l-.35.17v.28a10 10 0 0 1 1.29-.48.34.34 0 0 0 0-.17Z" transform="translate(0 -2.76)" fill="#7B7B88"></path><path id="logo-text_svg__Path_283" data-name="Path 283" class="logo-text_svg__cls-2" d="m68.78 29.67.45.45.46-.45-.46-.45Z" transform="translate(0 -2.76)" fill="#7B7B88"></path><path id="logo-text_svg__Path_284" data-name="Path 284" class="logo-text_svg__cls-2" d="m68.68 29.67-.45-.45-.45.45.45.45Z" transform="translate(0 -2.76)" fill="#7B7B88"></path><path id="logo-text_svg__Path_285" data-name="Path 285" class="logo-text_svg__cls-2" d="M68.67 30.75h-.12l-.43.6a.09.09 0 0 0 0 .12q.42.45.42.63c0 .13-.18.2-.53.2h-3.89c-.39 0-.59-.17-.59-.52V28.6a.38.38 0 0 0-.13.09l-.6.49v.14c0 .24.08.69.13 1.35s0 1.06 0 1.37a1.31 1.31 0 0 0 .34 1 .9.9 0 0 0 .62.25H68a1 1 0 0 0 .89-.52 2 2 0 0 0 .21-.93 1.78 1.78 0 0 0-.1-.56 1.38 1.38 0 0 0-.28-.52Z" transform="translate(0 -2.76)" fill="#7B7B88"></path><path id="logo-text_svg__Path_286" data-name="Path 286" class="logo-text_svg__cls-2" d="m75.24 30.35-.46-.45-.45.45.45.45Z" transform="translate(0 -2.76)" fill="#7B7B88"></path><path id="logo-text_svg__Rectangle_126" data-name="Rectangle 126" class="logo-text_svg__cls-2" d="m73.32 30.35.45-.45.46.45-.46.45Z" transform="translate(0 -2.76)" fill="#7B7B88"></path><path id="logo-text_svg__Path_287" data-name="Path 287" class="logo-text_svg__cls-2" d="M83.92 28.69c-1.2.43-2.08.76-2.63 1l-.18.95a4.13 4.13 0 0 1 .77.68 1.42 1.42 0 0 1 .45.74q0 .15-.21.21a5.35 5.35 0 0 1-1.06.07h-3.75c-.34 0-.55-.1-.63-.29a1.43 1.43 0 0 0 .18-.47q0-.18-.12-.18s-.13.06-.23.17a3.11 3.11 0 0 1-.32.31 3.6 3.6 0 0 1-2.19.52 4.42 4.42 0 0 1-1.14-.12.69.69 0 0 1-.56-.69 1.09 1.09 0 0 1 0-.25 1 1 0 0 0 .05-.25c0-.1-.05-.15-.14-.15s-.17.1-.27.31a1.51 1.51 0 0 0-.18.72c0 .9.67 1.36 2 1.36a5.72 5.72 0 0 0 1.24-.11 3 3 0 0 0 1.26-.61 1 1 0 0 0 .3.42.91.91 0 0 0 .61.23h4c1 0 1.55-.47 1.55-1.43a1.53 1.53 0 0 0-.28-.87 6 6 0 0 0-.66-.77l2-.67Z" transform="translate(0 -2.76)" fill="#7B7B88"></path><path id="logo-text_svg__Path_288" data-name="Path 288" class="logo-text_svg__cls-2" d="m93.63 30.54.45-.45-.44-.46-.46.46Z" transform="translate(0 -2.76)" fill="#7B7B88"></path><path id="logo-text_svg__Path_289" data-name="Path 289" class="logo-text_svg__cls-2" d="m93.57 29.34-.45-.45-.45.45.45.44Z" transform="translate(0 -2.76)" fill="#7B7B88"></path><path id="logo-text_svg__Path_290" data-name="Path 290" class="logo-text_svg__cls-2" d="M94.77 31.28a1.48 1.48 0 0 0-.19-.35.27.27 0 0 0-.07-.08.36.36 0 0 0-.07.1l-.34.52a1.16 1.16 0 0 1 .31.55c0 .21-.15.31-.46.31a.5.5 0 0 1-.46-.22 2.09 2.09 0 0 1-.11-.43c0-.15-.09-.22-.17-.22s-.16.07-.2.22a2 2 0 0 1-.14.41.48.48 0 0 1-.45.23.47.47 0 0 1-.44-.23 2.77 2.77 0 0 1-.12-.41c0-.15-.09-.22-.18-.22s-.16.07-.19.22a1.51 1.51 0 0 1-.13.41.51.51 0 0 1-.47.23h-4.18c-.31 0-.65-.25-1-.76h-.08l-.39.78a2.85 2.85 0 0 1 .42.43 1 1 0 0 1 .26.49c0 .25-.24.55-.7.91a5.15 5.15 0 0 1-1.3.71c-.06 0-.06.05 0 .07a4.28 4.28 0 0 0 1.47.19s.12-.06.26-.2a2.35 2.35 0 0 0 .68-1.78 1 1 0 0 0 .52.1h4a1 1 0 0 0 .9-.5.83.83 0 0 0 .76.5.82.82 0 0 0 .72-.5.86.86 0 0 0 .75.5.8.8 0 0 0 .75-.5 2 2 0 0 0 .21-.91 1.58 1.58 0 0 0-.13-.56Z" transform="translate(0 -2.76)" fill="#7B7B88"></path><path id="logo-text_svg__Path_291" data-name="Path 291" class="logo-text_svg__cls-2" d="m93.08 30.09-.45-.46-.45.46.45.45Z" transform="translate(0 -2.76)" fill="#7B7B88"></path></g></g></svg>